<?xml version="1.0" encoding="UTF-8" standalone="no"?>
<svg
   xmlns:dc="http://purl.org/dc/elements/1.1/"
   xmlns:cc="http://creativecommons.org/ns#"
   xmlns:rdf="http://www.w3.org/1999/02/22-rdf-syntax-ns#"
   xmlns:svg="http://www.w3.org/2000/svg"
   xmlns="http://www.w3.org/2000/svg"
   xmlns:sodipodi="http://sodipodi.sourceforge.net/DTD/sodipodi-0.dtd"
   xmlns:inkscape="http://www.inkscape.org/namespaces/inkscape"
   id="SvgjsSvg1022"
   width="250"
   height="250"
   version="1.1"
   sodipodi:docname="logo2.svg"
   inkscape:version="0.92.2 5c3e80d, 2017-08-06">
  <metadata
     id="metadata34">
    <rdf:RDF>
      <cc:Work
         rdf:about="">
        <dc:format>image/svg+xml</dc:format>
        <dc:type
           rdf:resource="http://purl.org/dc/dcmitype/StillImage" />
        <dc:title></dc:title>
      </cc:Work>
    </rdf:RDF>
  </metadata>
  <sodipodi:namedview
     pagecolor="#ffffff"
     bordercolor="#666666"
     borderopacity="1"
     objecttolerance="10"
     gridtolerance="10"
     guidetolerance="10"
     inkscape:pageopacity="0"
     inkscape:pageshadow="2"
     inkscape:window-width="640"
     inkscape:window-height="480"
     id="namedview32"
     showgrid="false"
     inkscape:zoom="0.81944444"
     inkscape:cx="144"
     inkscape:cy="144"
     inkscape:window-x="0"
     inkscape:window-y="0"
     inkscape:window-maximized="0"
     inkscape:current-layer="SvgjsSvg1022" />
  <defs
     id="SvgjsDefs1023" />
  <g
     id="SvgjsG1024"
     transform="matrix(0.9167,0,0,0.9167,-5.0895458,-6.4793763)">
    <!--?xml version="1.0" encoding="UTF-8"?-->
    <svg
       version="1.1"
       id="Layer_1"
       x="0px"
       y="0px"
       viewBox="0 0 48 48"
       xml:space="preserve"
       width="288"
       height="288"><path
         d="M 24,4 C 12.972,4 4,12.972 4,24 4,35.028 12.972,44 24,44 35.028,44 44,35.028 44,24 44,12.972 35.028,4 24,4 Z m 0,29.474 c -5.23,0 -9.474,-4.243 -9.474,-9.474 0,-5.231 4.239,-9.474 9.474,-9.474 5.235,0 9.474,4.244 9.474,9.474 0,5.23 -4.244,9.474 -9.474,9.474 z"
         class="color37474F svgShape"
         id="path3"
         inkscape:connector-curvature="0"
         style="fill:#37474f" /><path
         d="m 34.526,24 c 0,5.814 -4.712,10.526 -10.526,10.526 -5.814,0 -10.526,-4.712 -10.526,-10.526 0,-5.814 4.712,-10.526 10.526,-10.526 5.814,0 10.526,4.712 10.526,10.526 z"
         class="colorFFF svgShape"
         id="path5"
         inkscape:connector-curvature="0"
         style="fill:#e00f0f" /><path
         d="m 23.445,21.793 c 0,0.035 -0.02,0.07 -0.047,0.07 -0.027,0.004 -0.047,-0.02 -0.043,-0.059 0,-0.035 0.023,-0.066 0.047,-0.07 0.028,-0.004 0.047,0.024 0.043,0.059 z"
         class="color000 svgShape"
         id="path7"
         inkscape:connector-curvature="0"
         style="fill:#000000" /><path
         d="m 22.371,18.875 c -0.016,-0.035 -0.008,-0.078 0.016,-0.094 0.024,-0.016 0.055,0.004 0.07,0.039 0.016,0.039 0.008,0.078 -0.016,0.094 -0.024,0.016 -0.054,-0.004 -0.07,-0.039 z"
         class="color000 svgShape"
         id="path9"
         inkscape:connector-curvature="0"
         style="fill:#000000" /><path
         d="m 25.434,30.629 -0.023,-8.793 c 0,0 0.262,-0.109 0.441,-0.23 0.109,-0.078 0.121,-0.27 0.113,-0.441 -0.004,-0.078 -0.273,-1.867 -0.293,-2.012 -0.027,-0.164 -0.109,-0.285 -0.387,-0.41 -0.125,-0.059 -0.828,-0.359 -0.828,-0.359 L 24.414,18.2 24.269,18.184 24.262,18 c 0.176,-0.156 0.238,-0.543 0.238,-0.543 0.078,-0.082 0.121,-0.215 0.145,-0.352 0.016,-0.082 -0.039,-0.102 -0.039,-0.102 0.043,-0.344 0.074,-0.883 -0.414,-0.938 0,0 -0.027,-0.055 -0.055,-0.078 -1.012,-0.129 -0.926,0.645 -0.898,0.984 0,0 -0.063,0.031 -0.063,0.063 0,0.094 0,0.344 0.156,0.434 l 0.094,0.594 c 0.254,0.125 0.277,0.219 0.277,0.219 l -0.074,0.031 0.207,0.41 0.332,-0.254 c 0,0 0.152,0.082 0.293,0.125 0.156,0.625 0.063,1.652 0.02,2.055 h -0.012 c -0.086,-0.715 -0.93,-2.41 -1.168,-2.48 0,0 -0.156,0.07 -0.32,0.156 0.109,-0.402 0.031,-0.48 -0.027,-0.551 -0.039,-0.047 -0.09,-0.117 -0.184,-0.156 v -0.008 l 0.008,-0.031 0.082,-0.016 c 0.145,-0.027 0.125,-0.199 0.004,-0.195 -0.031,0 -0.063,0.004 -0.066,0.004 l 0.039,-0.344 c 0.004,-0.016 -0.02,-0.031 -0.051,-0.047 l 0.012,-0.082 c 0.031,-0.004 0.055,-0.016 0.055,-0.031 l 0.109,-0.941 c 0,-0.027 -0.059,-0.055 -0.133,-0.063 -0.074,-0.008 -0.141,0.004 -0.141,0.035 l -0.109,0.937 c 0,0.016 0.02,0.031 0.051,0.047 l -0.008,0.082 c -0.035,0.004 -0.059,0.016 -0.059,0.031 L 22.52,17.39 h -0.004 c -0.07,0.004 -0.137,0.031 -0.168,0.098 -0.043,0.082 -0.133,0.262 -0.133,0.395 0,0.414 0.043,0.848 0.398,0.848 0.141,0 0.246,-0.094 0.305,-0.148 0,0.094 0.012,0.32 -0.02,0.414 -0.078,0.117 -0.215,0.152 -0.344,0.148 -0.332,-0.008 -0.359,-0.234 -0.34,-0.398 0,0 -0.078,0.012 -0.098,0.137 -0.086,0.551 -0.328,1.875 -0.328,2.52 0,0.41 0.371,0.672 0.473,0.672 a 0.475,0.475 0 0 0 0.215,-0.039 l -0.484,9.211 c 0,0 0.152,0.496 0.43,0.496 0.395,0 0.672,-0.438 0.672,-0.438 0,0 0.789,-5.648 0.852,-6.238 h 0.016 c -0.027,1.18 0.344,1.797 0.242,2.238 -0.098,0.438 0.051,3.277 0.16,4.008 0,0 0.754,0.113 0.961,0.133 0.652,0.059 1.133,-0.047 1.133,-0.184 -0.005,-0.2 -0.524,-0.134 -1.024,-0.634 z m -1.895,-8.715 -0.23,0.035 a 0.15,0.15 0 0 1 -0.07,-0.082 c 0.129,-0.188 -0.008,-0.449 -0.078,-0.629 l 0.273,-0.02 c 0.097,0.169 0.195,0.419 0.105,0.696 z m 1.285,-2.297 v -0.164 c 0.031,0 0.438,0.059 0.438,0.262 a 2.594,2.594 0 0 1 -0.438,-0.098 z"
         class="color000 svgShape"
         id="path11"
         inkscape:connector-curvature="0"
         style="fill:#000000" /><path
         d="M 29.617,10.83 C 24.366,5.814 16.899,6.093 16.632,6.105 c -0.078,0 -0.715,0.004 -1.669,0.078 a 19.808,19.808 0 0 0 -4.116,2.788 c 2.891,-0.74 5.761,-0.761 5.835,-0.761 0.066,-0.004 6.871,-0.259 11.48,4.145 2.603,2.484 4.897,6.065 5.243,10.539 0.041,0.358 0.066,0.72 0.07,1.086 v 0.025 c 0,5.23 -4.243,9.47 -9.474,9.47 6.735,0 11.579,-3.684 11.579,-9.412 C 35.579,18.437 32.873,13.947 29.617,10.83 Z"
         class="color90A4AE svgShape"
         id="path13"
         inkscape:connector-curvature="0"
         style="fill:#90a4ae" /><path
         d="M 38.276,22.968 C 40.336,16.003 36.672,9.493 36.541,9.259 36.504,9.193 36.212,8.626 35.706,7.812 A 20.013,20.013 0 0 0 31.343,5.427 c 1.982,2.233 3.31,4.774 3.347,4.84 0.033,0.058 3.372,5.995 1.567,12.105 -1.02,3.45 -3.154,7.13 -6.97,9.482 a 9.21,9.21 0 0 1 -0.938,0.559 l -0.016,0.012 h -0.004 c -4.65,2.393 -10.362,0.563 -12.755,-4.087 3.084,5.991 8.573,8.61 13.668,5.987 5.005,-2.574 7.76,-7.036 9.034,-11.357 z"
         class="color90A4AE svgShape"
         id="path15"
         inkscape:connector-curvature="0"
         style="fill:#90a4ae" /><path
         d="m 31.812,35.998 c 7.089,-1.571 11.016,-7.924 11.155,-8.154 0.041,-0.062 0.395,-0.592 0.863,-1.427 a 19.954,19.954 0 0 0 -0.025,-4.975 c -0.995,2.817 -2.574,5.21 -2.615,5.271 -0.033,0.058 -3.614,5.851 -9.836,7.229 -3.516,0.777 -7.767,0.691 -11.674,-1.513 a 9.39,9.39 0 0 1 -0.942,-0.551 c -0.008,0 -0.012,-0.004 -0.016,-0.008 H 18.72 c -4.342,-2.915 -5.502,-8.799 -2.59,-13.146 -3.75,5.596 -3.388,11.669 1.373,14.86 4.671,3.13 9.906,3.385 14.309,2.414 z"
         class="color90A4AE svgShape"
         id="path17"
         inkscape:connector-curvature="0"
         style="fill:#90a4ae" /><path
         d="m 17.606,36.808 c 4.938,5.321 12.405,5.493 12.677,5.498 0.074,0.004 0.711,0.037 1.669,0.021 a 19.943,19.943 0 0 0 4.276,-2.537 c -2.928,0.567 -5.794,0.415 -5.868,0.411 -0.07,0 -6.875,-0.156 -11.213,-4.823 -2.451,-2.64 -4.523,-6.349 -4.601,-10.835 a 9.43,9.43 0 0 1 -0.004,-1.09 v -0.021 c 0.312,-5.222 4.803,-9.202 10.025,-8.89 -6.727,-0.403 -11.78,2.985 -12.126,8.705 -0.332,5.613 2.098,10.255 5.165,13.561 z"
         class="color90A4AE svgShape"
         id="path19"
         inkscape:connector-curvature="0"
         style="fill:#90a4ae" /><path
         d="m 9.736,25.197 c -1.978,6.99 1.756,13.458 1.896,13.688 0.033,0.066 0.337,0.629 0.847,1.439 a 19.919,19.919 0 0 0 4.391,2.331 c -2.011,-2.204 -3.368,-4.733 -3.405,-4.799 -0.033,-0.058 -3.442,-5.954 -1.706,-12.085 0.979,-3.462 3.072,-7.167 6.863,-9.564 a 9.95,9.95 0 0 1 0.929,-0.572 c 0.004,0 0.008,-0.004 0.016,-0.008 4.626,-2.447 10.358,-0.683 12.804,3.939 -3.15,-5.954 -8.672,-8.512 -13.738,-5.831 -4.966,2.633 -7.672,7.128 -8.897,11.462 z"
         class="color90A4AE svgShape"
         id="path21"
         inkscape:connector-curvature="0"
         style="fill:#90a4ae" /><path
         d="M 16.187,12.002 C 9.098,13.573 5.171,19.926 5.032,20.156 4.991,20.222 4.637,20.752 4.169,21.587 a 19.924,19.924 0 0 0 0.025,4.971 c 0.995,-2.813 2.574,-5.21 2.615,-5.271 0.033,-0.058 3.614,-5.851 9.836,-7.229 3.516,-0.777 7.767,-0.687 11.674,1.513 0.321,0.164 0.633,0.345 0.942,0.551 0.008,0.004 0.012,0.004 0.016,0.008 h 0.004 c 4.342,2.915 5.502,8.799 2.59,13.146 3.75,-5.596 3.388,-11.669 -1.373,-14.86 -4.672,-3.13 -9.907,-3.385 -14.311,-2.414 z"
         class="color90A4AE svgShape"
         id="path23"
         inkscape:connector-curvature="0"
         style="fill:#90a4ae" /><circle
         cx="24"
         cy="24"
         r="10"
         stroke-miterlimit="10"
         class="colorStroke90A4AE svgStroke"
         id="circle25"
         style="fill:none;stroke:#000000;stroke-width:2;stroke-miterlimit:10" /><metadata
         id="metadata27"><rdf:rdf><rdf:description
             about="https://iconscout.com/legal#licenses"
             dc:title="james,bond"
             dc:description="james,bond"
             dc:publisher="Iconscout"
             dc:date="2017-12-15"
             dc:format="image/svg+xml"
             dc:language="en"><dc:creator><rdf:bag><rdf:li>Icons8</rdf:li></rdf:bag></dc:creator></rdf:description></rdf:rdf></metadata></svg>  </g>
</svg>
